<svg id="Layer_1" data-name="Layer 1" xmlns="http://www.w3.org/2000/svg" xmlns:xlink="http://www.w3.org/1999/xlink" viewBox="0 0 770.76 650.14"><defs><style>.cls-1{fill:#fff;}.cls-1,.cls-10,.cls-11,.cls-12,.cls-24,.cls-4,.cls-5,.cls-6,.cls-7,.cls-8,.cls-9{stroke:#000;}.cls-1,.cls-10,.cls-11,.cls-12,.cls-24,.cls-25,.cls-4,.cls-5,.cls-6,.cls-7,.cls-8,.cls-9{stroke-miterlimit:10;}.cls-2{fill:url(#linear-gradient);}.cls-3{fill:#515912;}.cls-4{fill:#1a1a1a;}.cls-10,.cls-11,.cls-24,.cls-5,.cls-6,.cls-7,.cls-9{stroke-width:5px;}.cls-5{fill:url(#linear-gradient-2);}.cls-6{fill:url(#linear-gradient-3);}.cls-7{fill:url(#linear-gradient-4);}.cls-8{fill:#999;}.cls-9{fill:url(#linear-gradient-5);}.cls-10{fill:url(#linear-gradient-6);}.cls-11{fill:url(#linear-gradient-7);}.cls-12,.cls-19,.cls-25{fill:none;}.cls-13{fill:url(#linear-gradient-8);}.cls-14{fill:#0c0922;}.cls-15{fill:#181244;}.cls-16{fill:#1a163b;}.cls-17{fill:#59519f;}.cls-18{fill:#27200b;}.cls-20{fill:url(#linear-gradient-9);}.cls-21{fill:url(#linear-gradient-10);}.cls-22{fill:url(#linear-gradient-11);}.cls-23{fill:#063d06;}.cls-24{fill:url(#linear-gradient-12);}.cls-25{stroke:#aaaabc;}.cls-26{font-size:26px;font-family:SegoeUISymbol, Segoe UI Symbol;}</style><linearGradient id="linear-gradient" x1="479.02" y1="133.69" x2="678.4" y2="133.69" gradientTransform="translate(9.39 -15.46) rotate(2.34)" gradientUnits="userSpaceOnUse"><stop offset="0" stop-color="#cca53c"/><stop offset="0.04" stop-color="#b39237"/><stop offset="0.13" stop-color="#856d2e"/><stop offset="0.22" stop-color="#5e4f27"/><stop offset="0.3" stop-color="#403821"/><stop offset="0.39" stop-color="#2b271d"/><stop offset="0.47" stop-color="#1e1d1b"/><stop offset="0.54" stop-color="#1a1a1a"/><stop offset="0.64" stop-color="#1d1c1b"/><stop offset="0.71" stop-color="#27231d"/><stop offset="0.77" stop-color="#373021"/><stop offset="0.83" stop-color="#4e4126"/><stop offset="0.88" stop-color="#6c572d"/><stop offset="0.93" stop-color="#907236"/><stop offset="0.98" stop-color="#ba9240"/><stop offset="1" stop-color="#cb9e44"/></linearGradient><linearGradient id="linear-gradient-2" x1="187.03" y1="364.42" x2="400.98" y2="364.42" gradientUnits="userSpaceOnUse"><stop offset="0" stop-color="#cca53c"/><stop offset="0.22" stop-color="#e6bf51"/><stop offset="0.33" stop-color="#eaca66"/><stop offset="0.48" stop-color="#f0dc89"/><stop offset="0.54" stop-color="#edd57f"/><stop offset="0.65" stop-color="#e4c363"/><stop offset="0.76" stop-color="#d8ab3e"/><stop offset="0.89" stop-color="#d4a740"/><stop offset="1" stop-color="#cb9e44"/></linearGradient><linearGradient id="linear-gradient-3" x1="388.15" y1="356.49" x2="599.37" y2="356.49" xlink:href="#linear-gradient-2"/><linearGradient id="linear-gradient-4" x1="222.11" y1="189.08" x2="552.9" y2="189.08" xlink:href="#linear-gradient-2"/><linearGradient id="linear-gradient-5" x1="111.38" y1="391.71" x2="249.38" y2="391.71" gradientTransform="translate(9.39 -15.46) rotate(2.34)" gradientUnits="userSpaceOnUse"><stop offset="0" stop-color="#cca53c"/><stop offset="0.22" stop-color="#e6bf51"/><stop offset="0.33" stop-color="#eaca66"/><stop offset="0.48" stop-color="#f0dc89"/><stop offset="0.54" stop-color="#edd57f"/><stop offset="0.65" stop-color="#e4c363"/><stop offset="0.76" stop-color="#d8ab3e"/><stop offset="0.85" stop-color="#daaf41"/><stop offset="0.94" stop-color="#e2bc49"/><stop offset="1" stop-color="#e9c851"/></linearGradient><linearGradient id="linear-gradient-6" x1="320.07" y1="104.52" x2="458.07" y2="104.52" xlink:href="#linear-gradient-5"/><linearGradient id="linear-gradient-7" x1="546.08" y1="364.31" x2="684.08" y2="364.31" xlink:href="#linear-gradient-5"/><linearGradient id="linear-gradient-8" x1="94.46" y1="164.2" x2="273.87" y2="164.2" xlink:href="#linear-gradient"/><linearGradient id="linear-gradient-9" x1="606.13" y1="377.4" x2="606.52" y2="377.4" gradientUnits="userSpaceOnUse"><stop offset="0" stop-color="#ff0"/><stop offset="0.79" stop-color="lime"/><stop offset="1" stop-color="#006837"/></linearGradient><linearGradient id="linear-gradient-10" x1="602.58" y1="351.49" x2="605.45" y2="351.49" xlink:href="#linear-gradient-9"/><linearGradient id="linear-gradient-11" x1="202.17" y1="367.03" x2="201.64" y2="367.03" gradientUnits="userSpaceOnUse"><stop offset="0" stop-color="#d9e021"/><stop offset="1" stop-color="#009245"/></linearGradient><linearGradient id="linear-gradient-12" x1="47.66" y1="559.62" x2="736.66" y2="559.62" xlink:href="#linear-gradient-2"/></defs><path class="cls-1" d="M521.13,324c0,.37,0,.74,0,1.12A127.87,127.87,0,0,1,265.6,313.6c0-.27,0-.54,0-.81l.06-1.3A127.87,127.87,0,0,1,521.13,324Z"/><path class="cls-1" d="M539.41,372.35a69,69,0,0,1,60-65.6A205.52,205.52,0,0,0,552.9,188a208.19,208.19,0,0,0-17.84-19.13H251.67A206,206,0,0,0,187.2,310.4q-.15,4-.17,8a69,69,0,0,1,36.18,117.19A204,204,0,0,0,236,452.29H550.73A206.49,206.49,0,0,0,567,430.39,68.93,68.93,0,0,1,539.41,372.35ZM521.13,324c0,.37,0,.74,0,1.12A127.87,127.87,0,0,1,265.6,313.6c0-.27,0-.54,0-.81l.06-1.3A127.87,127.87,0,0,1,521.13,324Z"/><path class="cls-2" d="M485.23,72.1l6.93,8.18L512.1,96l52.22,32.52-.25,10,.59,10.27-24.94,27a182.67,182.67,0,0,1,15.56,21.88l6.9-7.37,21.87-27.21,17.81-1.74,6-1.69,18.72,15.87L665,205l14.11,6.36L672,201,656.23,178.2l-33.32-39.88L607.72,121l-18.17-10.4-17.87-7.1L531.57,82Z"/><path class="cls-3" d="M591.08,111.47c-4.05-1.06-7.06-1-8,.34-1.86,2.65,4.65,9.3,14.52,14.85,8.76,4.93,17.24,7.33,20.33,6"/><path class="cls-4" d="M320.73,349.47a60.19,60.19,0,0,1,4.7,13,34.43,34.43,0,0,0,4.32,9.05c1.87.44,3.73.94,5.58,1.55,19.38,7.8,39.17,15.67,59.82,20.27a287.31,287.31,0,0,0,45,1.48,201.87,201.87,0,0,0,23-4.05c0-.94,0-1.89,0-2.84.63-17.52,6.76-32,15.69-47.14.25-.42.52-.83.78-1.24a138.78,138.78,0,0,1-8.24-11.35c-4.45-6.94-7.56-15.13-10.08-22.71a28.82,28.82,0,0,1-1-3.83c-.06-.29-.11-.61-.17-.91-2.76-2.09-7.14-13.21-7.54-19.56-.45-7-7.87-23.38-7.87-23.38l-16-4s-13.91-19.25-15.27-22-12.86-27.21-12.86-27.21l-2.16,11L395,233.08l-13.1,14.81-18.6,5.24-7.94,22.29-5.88,16.51-25,21.66c-11.26,13.4-11.68,21.15-9.64,25.83C315.92,342.07,317.9,343.79,320.73,349.47Z"/><path class="cls-1" d="M317.9,337.77c0-.67,2.34-9.37,2.34-9.37s.95-5.18,1.94-5.58,4.05-3.17,5.31-4,2.67-5.23,3.47-.75-3.16,11.21-3.72,13-1.92,5-1.92,5a8.85,8.85,0,0,0,3.13,1.24c1.23.05,3.59-3.86,3.71-6.75a99.73,99.73,0,0,1,.9-10c.29-1.1,1.36-9.28,1.36-9.28l14.51-7,8.89-14-.62,15.28-4.37,10.94,11.31-12.75,2.49-13.11,10.54-6.06-5.46,13.72-.46,11.39,11.19,14s3.22-6.75.33-8.2-3.8-14.83-3.8-14.83l21.78-5.34.28-6.66,8.53-5,.33-8,6.34,4.85s6.6,14.36,6.54,15.69-7.66,11.69-7.66,11.69-3.25,11.43-.53,12.88,10.82,7.11,10.82,7.11l-3.55-9s-2.1-8.53-1.07-9.83,4.65-5.73,5.74-8.51,3.85-10.22,3.85-10.22l.22-5.33,8.7,3-.23,5.59L434.92,299l-3.26,7.87-.31,7.55,4.75,3.75,4.08,7.94.34-8.2-1.6-9,5.3-9.57.22-5.51s10.38,9.94,10.22,13.94l-.49,12,5.29.66.56-13.77a18.17,18.17,0,0,0,.21-4.15c-.5-2.61-1-5.6-1.36-8.65-.94-.34-5.08-12.8-5.08-12.8s-3.58-8.39-3.79-9-5.35-13.4-5.35-13.4l-3.46-5.26-12.8-4.52-3.85.08-4-12.41L418.13,234l-2.63-5.66-5.57-13.62L402,204.43l-5.26-3.32L394.48,215a42.27,42.27,0,0,0-.69,4.76,34.91,34.91,0,0,1-3.34,9.76,37.92,37.92,0,0,0-3.25,7.65c0,.66-9.08,6.3-9.08,6.3s-3.61,4.3-4.34,4.27a24.33,24.33,0,0,0-5.4.22c-1.25.4-7.68,1.91-8,3.23s-1.24,6.4-1.77,7.27-1.26.84-2.6,3.79-6.59,11.18-7.13,12.49-1.09,5.32-1.77,7.14c-.77.88-2.24,2.65-4.89,5.93-3.37,4.17-4.42,5.54-4.59,5.79l-.58.67a56.22,56.22,0,0,0-4.37,5.34c.1-.34.62-2.41-2-.26-2.79,2.33-6.63,6.4-7.24,9.27s-4.42,6.27-4.42,6.27-.53.87-1.33,2.39-4,6.06-3.49,6.08-1.36,4.72-1.36,4.72l-.25,6,6.74,9.05A50.58,50.58,0,0,1,317.9,337.77Z"/><path class="cls-4" d="M275,369.16c-1.54-3.91-1.19-10.39,7.39-21.62l19.07-18.19L306,315.53l6.09-18.66,14.13-4.44,10-12.42,2.64-14.58,1.68-9.23s8.65,20.43,9.67,22.71,11.52,18.32,11.52,18.32l12.14,3.28s5.58,13.68,5.9,19.52S384,336.51,386,336.65s19.75-11.41,19.75-11.41l5.71-30.44L430.24,272l4,11.42,7.67,17,12.64-9q6.51,9.68,13.7,19.63c7.62,10.52,15.24,20.44,22.77,29.77L510.28,361c.82.86,2.48,2.46,4.27,4.64.48.57,2.13,2.59,2.13,2.59-.08.76-.21,1.93-.42,3.33-5.94,39.61-45.93,63.18-54.07,68-1.13.67-2.75,1.61-4.81,2.72-2.89,1.56-26.06,13.7-54.7,15.18,0,0-51.88,2.61-94.83-35.77-11.27-10.07-22.87-25-24.81-33.32a52.94,52.94,0,0,0-3.53-10.84C277.38,372.81,275.89,371.37,275,369.16Z"/><path d="M294.17,501,254.91,538l-21.75-10.46,35.51-37.72,7.59-7.28A207.31,207.31,0,0,0,294.17,501Z"/><path d="M499.06,496.87l37.41,41.49,23.31-8.92L526.3,487.59l-7.22-8.14A214.43,214.43,0,0,1,499.06,496.87Z"/><path class="cls-5" d="M401,525q-8,.29-16,0a206.81,206.81,0,0,1-161.74-89.43A69,69,0,0,0,187,318.37q0-4,.17-8a205.38,205.38,0,0,1,34.91-106.71l60,51.3.29.23a127.27,127.27,0,0,0-16.7,56.27l-.06,1.3c0,.27,0,.54,0,.81a127.87,127.87,0,0,0,122.55,133l.93,5.71Z"/><path class="cls-6" d="M567,430.39A206.8,206.8,0,0,1,401,525l-11.9-72.74-.93-5.71A127.86,127.86,0,0,0,521.08,325.16c0-.38,0-.75,0-1.12a127.06,127.06,0,0,0-17.58-70.13l.3-.39,49-65.56a205.52,205.52,0,0,1,46.47,118.79A69,69,0,0,0,567,430.39Z"/><path class="cls-7" d="M552.9,188l-49,65.56-.3.39a127.91,127.91,0,0,0-221.15,1.31l-.29-.23-60-51.3A207,207,0,0,1,325.23,124a69,69,0,0,0,133.17-1,205.78,205.78,0,0,1,76.66,45.88A208.19,208.19,0,0,1,552.9,188Z"/><path class="cls-8" d="M521.08,325.15c0-.37,0-.74,0-1.11A127.87,127.87,0,0,0,265.7,311.49,127.3,127.3,0,0,1,282.11,255l.33-.57a127.91,127.91,0,0,1,221.16-1.32l.25.42a127.3,127.3,0,0,1,17.32,69.71C521.15,323.86,521.11,324.51,521.08,325.15Z"/><path class="cls-9" d="M242.58,386.1a69,69,0,1,1-56.82-70.75A68.81,68.81,0,0,1,242.58,386.1Z"/><path class="cls-10" d="M462.81,107.67a69,69,0,1,1-66.12-71.76A68.48,68.48,0,0,1,462.81,107.67Z"/><path class="cls-11" d="M678,376.47a69,69,0,1,1-77.93-71.24,70,70,0,0,1,11.81-.52A69,69,0,0,1,678,376.47Z"/><line class="cls-12" x1="282.4" y1="255.23" x2="282.4" y2="255.22"/><path class="cls-1" d="M292.82,342l11-5.87,6.79-11.77-.52,12.77-3.35,9.16,8.62-10.69,1.93-11,8-5.1L321.16,331l-.39,9.52,8.45,11.68s2.46-5.65.28-6.86S326.66,333,326.66,333l16.55-4.53.23-5.57,6.49-4.19.27-6.69,4.8,4s5,12,4.91,13.09-5.85,9.81-5.85,9.81-2.5,9.56-.44,10.76,8.19,5.91,8.19,5.91l-2.67-7.54s-1.57-7.13-.78-8.21,3.54-4.81,4.38-7.14,3-8.56,3-8.56l.18-4.45,6.59,2.5-.19,4.67-3.16,4.49-2.5,6.59-.26,6.31,3.59,3.12L373,354l.28-6.86-1.18-7.49,4-8,.19-4.61s7.84,8.28,7.71,11.62l-.41,10,4,.53.3-7.42.17-4.08s6.9-3.93,8-3.64,8.79-5.87,8.79-5.87l7.69-6.23,5-3.39-.33,8-10.36,7.89s3,9.29,4,10.45,7.73,10.9,7.73,10.9l2.6.11s-3.74-8.51-3.65-10.74-.11-6.32-.07-7.44,4.71-6.13,4.71-6.13l4.72-6.13.21-5.19s5.94.24,7,1,4.5,8.36,4.4,10.59l-.34,8.54,2.13,2.32a12.85,12.85,0,0,0,2.09-5.5c.1-2.6.75-9.26.44-10.76s.44-6.93.44-6.93,0-3.84,4.37-1.8,9.77,6.72,10.1,7.85,3.73,8.7,3.73,8.7l2.82,3.84s3.14,5,3.64,2-1.95-7.08-2.59-9.55-1-10.67-.63-11.77a33,33,0,0,1,2.39-4l8,3.68-1.08-6-8.52-9.29-5.45-7.66L456,289.61l-2.22,3.57s-4,2.62-5.35,3.69S444,300.4,444,300.4l-1.68-4.16-.78-5.57-2.15-4.77L437,280.59l-3.1-8.85-3.3-2.66-7,11.48L418,287.41l-5,3.92s.1,6.91.09,6.95-1.49,4.7-2.28,5.79-1.66,8.81-1.66,8.81A19.32,19.32,0,0,1,408,317c-.6,1.09-.84,2.38-1.61,3.09s-2.65,1-3.23,1.73-1.38,1.8-1.38,1.8l-3.84,3-4.27-.18a15.51,15.51,0,0,0-3.4,1.2s-4.08-.2-4.38-1.89-2.41-9.39-2.41-9.39-2.68-7-2.84-7.5-4-11.19-4-11.19L374,293.27l-9.7-3.74-2.92.08-3-10.37-1.83-2.12-2-4.73L350.42,261l-6-8.57-4-2.77-1.78,11.64a39,39,0,0,0-.54,4,31.44,31.44,0,0,1-2.56,8.17,33.82,33.82,0,0,0-2.49,6.4c0,.56-6.91,5.3-6.91,5.3s-2.75,3.61-3.31,3.58a16.5,16.5,0,0,0-4.1.21c-.94.33-5.83,1.62-6.06,2.72a51.5,51.5,0,0,1-1.36,6.08,10.36,10.36,0,0,0-2,3.18c-1,2.47-5,9.37-5.45,10.47s-1,5.35-1.57,6.44,3.76-5.43-3.53,4.5-.41.92-3.94,5.42-3.34,4.51-3.34,4.51.65-2.2-1.48-.24-5.05,5.37-5.52,7.77-3.38,5.25-3.38,5.25-.4.73-1,2-3.09,5.08-2.67,5.1-1.05,3.94-1.05,3.94l-.2,5,5.08,7.55a43.82,43.82,0,0,1-1.11-4.51c0-.56,1.8-7.84,1.8-7.84s.74-4.33,1.5-4.67,3.08-2.66,4-3.36,2-4.38,2.63-.64-2.43,9.38-2.86,10.85-1.48,4.22-1.48,4.22a6.38,6.38,0,0,0,2.38,1c.93,0,2.73-3.24,2.83-5.65s.49-7.42.71-8.34S292.82,342,292.82,342Z"/><path class="cls-13" d="M279.54,81.13l-6.45,8.55-19,16.85L203.76,142l.82,9.94v10.29L231,187.76a185,185,0,0,0-14.29,22.72l-7.31-7L186,177.59l-17.88-.73-6-1.36L144.3,192.41,107.59,224l-13.73,7.15,6.54-10.74,14.41-23.67,31-41.7L160,136.86l17.56-11.41,17.43-8.1,38.83-23.76Z"/><path class="cls-3" d="M176.08,126.41c4-1.29,7-1.43,8-.11,2,2.54-4.12,9.54-13.67,15.64-8.46,5.41-16.79,8.3-20,7.11"/><line class="cls-1" x1="464.83" y1="318.92" x2="467.22" y2="314.92"/><path class="cls-14" d="M153.07,416.94a139.69,139.69,0,0,0,19.56,1.21l-2.89.92-5.66,1.79h0l-.4.58h0l-13.95.39-4.49.13h-.07l-6.65-.27-.41-.66,1.06-1.54h0l5.66-1.79,6.06-1.93,3.14-1Z"/><polygon points="138.5 421.69 145.15 421.96 138.78 422.14 138.5 421.69"/><path d="M172.64,418.15c2,0,3.89-.14,5.65-.3L176.85,420l-.78,1.13-12.4.34.4-.58h0l5.66-1.79,2.89-.92Z"/><polygon class="cls-15" points="155 413.36 154.02 414.78 150.88 415.77 144.82 417.7 139.16 419.49 139.15 419.49 138.09 421.03 137.66 420.36 148.79 404.27 150.97 407.45 151 407.49 155 413.36"/><polygon points="161.15 404.36 155 413.36 151 407.49 150.97 407.45 148.79 404.27 151.21 400.79 151.57 400.85 159.59 402.1 161.15 404.36"/><polygon class="cls-16" points="168.34 376.05 167.75 382.8 167.39 386.99 159.97 388.14 167.18 377.73 167.18 377.72 168.11 376.39 168.34 376.05"/><polygon class="cls-14" points="181.07 375.21 180.01 376.79 179.96 376.87 173.71 386.01 169.96 386.59 173.55 382.9 181.07 375.21"/><polygon class="cls-16" points="182.38 373.33 181.32 374.87 177.43 369.81 175.2 366.89 173.48 368.63 178.13 361.93 181.33 370.5 182.38 373.33"/><path class="cls-15" d="M188,344.31v15.37l-7.42-1.33,4.56-6.58c-2.1-.39-4.28-.71-6.51-.92l2.25-3.29,2.22-3.25Z"/><path class="cls-17" d="M181.21,344.31l-1.36.43-6.06,1.92-5.66,1.79h0l-1.49,2.17h.27a63.64,63.64,0,0,0-8.17,1.09l2.28-3.46,2.6-3.95Z"/><path class="cls-17" d="M152.57,353.29l-.19,0c-.91.29-1.79.59-2.66.91l-3,3.64L143,366.64h-3.16l3.1-4.55,7.86-11.47-5.13-4.49H140.4l.2-4.24h3.23l3.23,2.43h2.37l-.06.08h0Z"/><polygon points="139.67 362.12 139.67 366.63 139.47 366.63 139.67 362.12"/><polygon class="cls-14" points="199.26 348.66 199.17 348.8 194.04 344.31 196.83 344.31 199.26 348.66"/><polygon class="cls-14" points="173.71 386.01 168.58 393.5 168.55 393.54 163.71 400.62 161.15 404.36 159.59 402.1 151.57 400.85 151.21 400.79 156.04 393.82 159.97 388.14 167.39 386.99 167.98 386.9 169.96 386.59 173.71 386.01"/><polygon class="cls-17" points="161.15 404.36 155 413.36 151 407.49 150.97 407.45 148.79 404.27 151.21 400.79 151.57 400.85 159.59 402.1 161.15 404.36"/><polygon class="cls-17" points="181.32 374.87 181.15 375.13 181.07 375.21 173.55 382.9 169.96 386.59 167.98 386.9 167.39 386.99 167.75 382.8 168.34 376.05 168.35 376.04 169.6 374.22 169.61 374.22 172.57 369.94 173.48 368.63 175.2 366.89 177.43 369.81 181.32 374.87"/><polygon class="cls-18" points="181.42 375.01 181.29 374.99 181.15 375.13 181.32 374.87 181.35 374.91 181.42 375.01"/><polygon class="cls-17" points="178.29 417.85 176.85 419.97 176.07 421.1 163.67 421.44 164.07 420.86 164.08 420.86 169.74 419.07 172.63 418.15 172.64 418.15 178.29 417.85"/><path class="cls-14" d="M204.51,401l-2.46,11.24,0,.08-1.78,8.16-24.18.67.78-1.13,1.44-2.12c5.91-.5,10.37-1.66,12.86-3.39a28.79,28.79,0,0,0,3-2.47,25.43,25.43,0,0,0,6.86-11.74Z"/><polygon class="cls-18" points="202.1 412.17 202.03 412.27 202.05 412.19 202.1 412.17"/><polygon class="cls-18" points="160.38 414.9 160.79 415.55 159.95 415.52 160.38 414.9"/><polygon class="cls-18" points="149.71 421.83 149.56 422.06 149.65 422.14 149.51 422.14 145.22 421.96 149.71 421.83"/><line class="cls-19" x1="154.02" y1="414.78" x2="153.07" y2="416.94"/><polygon class="cls-14" points="166.91 350.63 166.9 350.63 166.63 350.62 168.12 348.45 168.13 348.45 173.79 346.66 179.85 344.74 181.21 344.31 183.12 344.31 180.9 347.56 178.65 350.85 166.91 350.63"/><line class="cls-19" x1="178.65" y1="350.85" x2="166.91" y2="350.63"/><polygon class="cls-14" points="188.02 359.68 188.02 365.08 185.13 369.31 182.38 373.33 181.33 370.5 178.13 361.93 178.13 361.92 180.6 358.35 188.02 359.68"/><path class="cls-15" d="M163.61,344.31l-2.6,3.95-2.28,3.46a56.8,56.8,0,0,0-6.16,1.57l-3.2-8.89h0l.06-.08Z"/><polygon class="cls-15" points="191.31 360.27 188.02 365.08 188.02 359.68 191.31 360.27"/><polygon class="cls-17" points="199.17 348.8 191.31 360.27 188.02 359.68 188.02 344.31 194.04 344.31 199.17 348.8"/><polygon class="cls-14" points="150.82 350.61 142.96 362.08 139.86 366.63 139.67 366.63 139.67 362.12 140.4 346.12 145.69 346.12 150.82 350.61"/><polygon class="cls-18" points="139.86 366.63 139.67 366.89 139.67 366.63 139.86 366.63"/><path class="cls-17" d="M592.6,430.53a15.63,15.63,0,0,1-6.1,1.22h0V394.58c4.63,4.8,8.83,11.27,9.59,19.31C596.21,415.34,597.09,424.75,592.6,430.53Z"/><path class="cls-14" d="M641.55,358.42c0,.2,0,.4,0,.6s0,.25,0,.37a.25.25,0,0,1,0,.08v.17a1.09,1.09,0,0,0,0,.18c0,.06,0,.12,0,.18v.06a.76.76,0,0,1,0,.15s0,.08,0,.13,0,.3,0,.44,0,.33,0,.49a1.87,1.87,0,0,1,0,.25v0c0,.11,0,.21,0,.32v0h0v0s0,.08,0,.12a.09.09,0,0,1,0,0h0c0,.09,0,.18,0,.28s0,.06,0,.09a1.43,1.43,0,0,1,0,.22,1.7,1.7,0,0,1,0,.22v0l-.06.28a.29.29,0,0,1,0,.09.69.69,0,0,1,0,.13.83.83,0,0,0,0,.15s0,.06,0,.08l0,.08c0,.08,0,.16-.05.24l0,.06,0,.15a.24.24,0,0,0,0,.08l-.06.22s0,.11,0,.16,0,0,0,.06v0l0,.06c0,.06,0,.11,0,.16l0,.12a0,0,0,0,1,0,0,.31.31,0,0,1,0,.08v0c0,.12-.07.23-.11.34l-.15.45-.1.31-.09.23c0,.09-.06.19-.1.28s-.07.17-.1.26,0,0,0,0l0,.06a0,0,0,0,1,0,0l-.09.23-.08.18,0,.06-.21.47a.3.3,0,0,0,0,.1l0,0a.69.69,0,0,1,0,.13.41.41,0,0,1-.05.09l0,0a.37.37,0,0,1,0,.11v0a.25.25,0,0,1,0,.07v0l-.21.4q-.15.32-.33.63c-.07.13-.15.26-.22.4s-.25.43-.39.64l0,.05-.17.28h0c0,.06-.07.12-.11.17a.21.21,0,0,1,0,.06.83.83,0,0,1-.08.12l-.08.11c-.09.15-.19.29-.3.44l-.29.4c0,.07-.09.13-.15.2h0l-.21.27-.16.2-.17.21c-.2.25-.41.5-.63.74l-.11.13,0,0,0,0-.42.45,0,0-.13.14h0l-.11.1-.08.09-.27.26a.46.46,0,0,1-.07.07l-.24.23a1.54,1.54,0,0,1-.19.17l-.28.26-.15.12-.36.32-.37.3-.13.1a.05.05,0,0,1,0,0,.79.79,0,0,1-.15.12l-.23.18-.22.16-.19.14-.26.19-.3.2-.1.07-.34.22-.34.22-.07.05-.14.08-.14.08-.2.12-.05,0-.25.15-.2.11-.24.13h0l-.23.12-.38.19c-.16.09-.33.17-.5.25l-.43.19-.36.16-.42.18-.14.05a.11.11,0,0,1-.08,0l-.36.14-.59.22-.21.07-.51.16-.18.06-.13,0-.06,0-.3.09-.09,0-.23.06h0l-.07,0h0l-.2.05h-.06l-.25.06-.35.08h-.08l-.21,0-.27,0h0l-.33.06-.12,0-.1,0-.42.06-.17,0h-.08l-.16,0-.16,0h-.15l-.11,0-.25,0H620l-.41,0h0l-.49,0H619l-.55,0a15.73,15.73,0,0,0,15.27-15.73c0-.4,0-.79,0-1.18A15.74,15.74,0,0,0,627.81,354L623,351.37a15.76,15.76,0,0,0-20.78,14.91V416a15.7,15.7,0,0,1-9.56,14.46,11.48,11.48,0,0,0,1.45-1.13c5.93-5.5,4.9-16.48,4.76-18.05-.91-9.65-6.78-17-12.38-22V366.28a31.45,31.45,0,0,1,30.86-31.46h1.54l.64,0,.46,0,1.11.13.41.05.21,0,.31.05.29.05h0l.28,0,.17,0a3,3,0,0,1,.41.09l.44.1.19.05.6.16.42.13h0l.45.14.15.05.48.17.52.19h0c.35.13.7.28,1,.43l.24.11.23.11.58.28.35.18.52.29a.39.39,0,0,1,.11.06h0l.26.14.29.18.19.11.42.26.22.15.24.16.15.1.75.54.27.21.36.28.4.33.15.13.37.32.44.4.43.42.42.42c.27.28.53.56.78.85l0,0h0c.13.15.26.3.38.46s.32.38.47.58l.41.54.33.46.13.19.26.39.09.14.31.5c.12.2.24.39.35.59s.2.36.29.54l0,.05c.17.31.33.63.48.94l.15.32c0,.11.09.21.14.32l.15.34a1.8,1.8,0,0,0,.08.21l.09.22c.05.12.09.24.14.35.13.35.25.7.37,1.06,0,.12.07.24.11.35.17.54.31,1.09.44,1.65l.12.56,0,.13c0,.14.06.29.08.44v.07c0,.2.07.39.1.59s.05.37.08.56c.06.52.11,1,.14,1.58,0,.11,0,.21,0,.32s0,.4,0,.6c0,0,0,.1,0,.15Z"/><path class="cls-16" d="M641.55,358.42c0,.53,0,1.06,0,1.58,0,.69-.12,1.37-.23,2v0h0a2.51,2.51,0,0,1,0,.27.3.3,0,0,1,0,.1l-.12.67-.06.28a.75.75,0,0,1,0,.16.19.19,0,0,1,0,.08c0,.11,0,.21-.07.32s0,0,0,.06l-.06.23-.06.22a.83.83,0,0,1,0,.15c0,.11-.06.21-.08.31a.07.07,0,0,0,0,.05l0,.07v0l0,.09v0l-.1.34-.15.45c-.13.36-.26.72-.4,1.08a0,0,0,0,1,0,0l0,.06a0,0,0,0,0,0,0c-.06.14-.12.27-.17.41l0,.06-.21.47a.36.36,0,0,1,0,.09v0l-.06.13,0,.09,0,0-.06.11v0l0,.08h0l-.2.41c-.11.21-.22.42-.34.63s-.14.26-.22.39-.25.44-.38.65l0,.05-.17.28h0a1.63,1.63,0,0,1-.11.17l0,.06-.08.12a1,1,0,0,0-.08.11l-.3.44-.29.4-.15.2h0l-.21.27-.16.2-.17.21c-.2.25-.41.5-.63.74l-.11.13,0,0,0,0-.41.45,0,0-.13.14h0l-.1.1-.09.09-.26.26-.07.07-.24.23-.2.17a3.45,3.45,0,0,1-.28.26l-.14.12-.37.32-.36.3-.14.1s0,0,0,0a.79.79,0,0,1-.15.12l-.22.18-.23.16-.19.14-.26.19-.29.2-.1.07-.34.22-.35.22-.07.05-.14.08-.13.08-.21.12,0,0-.26.15-.19.11-.25.13h0l-.22.12-.38.19-.51.25-.43.19-.35.16-.43.18-.13.05-.08,0-.37.14-.59.22-.2.07-.51.16-.18.06-.13,0-.06,0-.31.09-.09,0-.23.06h0l-.07,0h0l-.09,0-.09,0h-.06l-.25.06-.35.08h-.08l-.21,0-.08,0-.19,0h0l-.33.06-.12,0-.1,0-.42.06-.17,0h-.07l-.16,0-.17,0h-.25l-.26,0H620l-.42,0h0l-.48,0H619l-.55,0a15.73,15.73,0,0,0,15.28-15.73c0-.4,0-.79-.05-1.19a20.56,20.56,0,0,0,1.88-8.64,20.79,20.79,0,0,0-1-6.39l-.08.05-2.16-4.81.39-.27-.4.27a20.71,20.71,0,0,0-23.41-8.66,23.6,23.6,0,0,1,26.85,6.24l0,0,3.07,4.44h0A23.41,23.41,0,0,1,641.55,358.42Z"/><path class="cls-20" d="M606.52,378a11.07,11.07,0,0,1-.39-1.1l.31.31C606.46,377.42,606.49,377.68,606.52,378Z"/><path class="cls-21" d="M605.45,353.56h0a21.26,21.26,0,0,0-2.86-4.15h0l.36.42.44.54.38.51.3.43.13.18.24.36.09.13.29.47c.11.18.22.36.32.55l.28.5Z"/><path class="cls-22" d="M202.17,367l-.54,0h.54Z"/><path class="cls-15" d="M649.37,368.13a31.48,31.48,0,0,1-47.15,25.41V366.28a15.68,15.68,0,0,0,4.44,11l.33.33a15.7,15.7,0,0,0,10.5,4.44h.92l.55,0h.13l.48,0h0l.42,0h.31l.26,0,.1,0h.15l.17,0,.16,0h.07l.17,0,.42-.06.1,0,.12,0,.33-.06h0l.27,0,.21,0H623l.35-.08.25-.06h.06l.09,0,.09,0h0l.07,0h0l.23-.06.09,0,.31-.09.06,0,.13,0,.18-.06.51-.16.2-.07.59-.22.37-.14.08,0,.13-.05.43-.18.35-.16.43-.19.51-.25.38-.19.22-.12h0l.25-.13.19-.11.26-.15,0,0,.21-.12.13-.08.14-.08.07-.05.35-.22.34-.22.1-.07.29-.2.26-.19.19-.14.23-.16.22-.18a.79.79,0,0,0,.15-.12s0,0,0,0l.14-.1.36-.3.37-.32.14-.12a3.45,3.45,0,0,0,.28-.26l.2-.17.24-.23.07-.07.26-.26.09-.09.1-.1h0l.13-.14,0,0,.41-.45,0,0,0,0,.11-.13c.22-.24.43-.49.63-.74l.17-.21.16-.2.21-.27h0l.15-.2.29-.4.3-.44a1,1,0,0,1,.08-.11l.08-.12,0-.06a1.63,1.63,0,0,0,.11-.17h0l.17-.28,0-.05c.13-.21.26-.43.38-.65s.15-.26.22-.39.23-.42.34-.63.14-.27.2-.41h0l0-.08s0,0,0,0l.06-.11,0,0,0-.09.06-.13v0a.36.36,0,0,0,0-.09,4.84,4.84,0,0,0,.21-.47l0-.06.07-.18c0-.08.07-.16.1-.23a0,0,0,0,1,0,0l0-.06a0,0,0,0,0,0,0l.11-.27.1-.27c0-.07,0-.15.08-.23s.07-.21.11-.31l.15-.45.1-.34v0l0-.09v0l0-.07a1.6,1.6,0,0,1,0-.21l0-.07h0a.14.14,0,0,0,0-.07.83.83,0,0,0,0-.15c0-.1.06-.2.08-.3a.83.83,0,0,0,0-.15s0,0,0-.06a2.59,2.59,0,0,0,.09-.4.75.75,0,0,0,0-.16l0-.13s0,0,0-.08,0-.18,0-.28v0a2.25,2.25,0,0,0,0-.22l0-.22a.3.3,0,0,0,0-.1,2.51,2.51,0,0,0,0-.27h0v0a.5.5,0,0,0,0-.12v0h0v0c0-.11,0-.21.05-.32v0l0-.25c0-.16,0-.33,0-.49s0-.29,0-.45,0-.08,0-.12a.76.76,0,0,1,0-.15c0-.08,0-.16,0-.25s0-.11,0-.17,0-.11,0-.17v-.08c0-.13,0-.25,0-.37s0-.4,0-.61V358c0-.2,0-.4,0-.6s0-.22,0-.33c0-.53-.08-1.05-.14-1.57,0-.19,0-.38-.08-.56l-.09-.59v-.07l-.09-.45,0-.12c0-.19-.08-.38-.13-.57-.12-.55-.27-1.1-.44-1.64a3.58,3.58,0,0,0-.11-.35c-.11-.36-.24-.71-.37-1.06,0-.12-.09-.23-.14-.35l-.08-.22-.09-.21-.15-.34a3.09,3.09,0,0,0-.14-.32l-.15-.32c-.15-.32-.31-.63-.47-.94l0-.06-.3-.54-.34-.58c-.1-.17-.21-.34-.32-.5a1.1,1.1,0,0,0-.09-.14l-.26-.39a2.14,2.14,0,0,0-.13-.19l-.33-.47-.4-.53-.47-.59-.39-.45h0l0,0-.78-.85-.42-.42-.44-.42c-.14-.14-.29-.27-.44-.4l-.37-.33-.15-.13-.39-.32-.37-.29-.27-.2-.74-.54-.16-.11-.24-.15-.22-.15-.42-.26-.19-.12-.29-.17-.25-.15h0l-.12-.07-.52-.28-.35-.18-.57-.28-.24-.11-.24-.11c-.34-.15-.69-.3-1-.44h0l-.53-.19-.48-.17-.15-.05-.44-.14h0l-.42-.12-.59-.16-.2-.05-.44-.11-.4-.08-.17,0-.29-.06h0l-.29-.06-.3-.05-.22,0-.4-.06L620,334.9l-.46,0-.64,0h0a31.35,31.35,0,0,1,18.69,6.83l1.75,1.67,2.33,2.23A31.3,31.3,0,0,1,649,360.93c-3.35,7.11-10.41,18.27-22.79,21.54-1.4.37-10.56,2.78-17-.72a10.76,10.76,0,0,0,1.41,1.3c6.4,5,17.06,2.15,18.59,1.75C639,382.22,645.44,374.68,649.37,368.13Z"/><path class="cls-23" d="M604.12,349.42l0,0h0Z"/><path class="cls-16" d="M408.22,64.44l-2.48,5.14c-.79,0-1.74-.07-2.94-.08h-.91l-.22-5,0,0,6.24-.21Z"/><path class="cls-17" d="M401.89,69.49c-1.46,0-2.73,0-3.85,0l-.24-2,3.87-3Z"/><polygon class="cls-14" points="401.67 64.47 397.8 67.43 397.47 64.56 401.65 64.43 401.67 64.47"/><path class="cls-15" d="M397.8,67.43l-2.68,2.06c-1.18,0-2.12.07-2.88.12h0l-.4-.22,1.48-4.69,4.17-.13Z"/><path class="cls-15" d="M398,69.45c-1.11,0-2.08,0-2.92,0l2.68-2.06Z"/><polygon class="cls-17" points="393.3 64.7 391.82 69.39 383.57 65.02 393.3 64.7"/><path class="cls-15" d="M391.82,69.39l-.09.26c-.93.07-1.58.16-2.13.23-1.31.18-2.44.38-3.25.55l-4.53-5.35,1.74-.06h0Z"/><path class="cls-14" d="M385.94,70.5l.14,6.52L374.77,75.3l1.27-10,5.78-.2,4.53,5.35Z"/><polygon class="cls-16" points="376.04 65.28 374.77 75.3 374.71 75.3 374.54 74.17 373.34 71.9 371.66 70.4 369.69 69.71 370.05 65.48 376.04 65.28"/><polygon class="cls-17" points="370.05 65.48 369.69 69.71 369.68 69.71 366.31 69.52 363.76 69.14 363.66 65.69 370.05 65.48"/><polygon class="cls-15" points="386.19 83 375.41 91.25 375.03 77.35 374.75 75.51 374.75 75.5 374.77 75.3 386.08 77.02 386.19 83"/><polygon class="cls-14" points="386.24 85.05 381.49 91.89 375.44 92.11 375.41 91.25 386.19 83 386.24 85.05"/><polygon class="cls-17" points="386.37 91.71 381.49 91.89 386.24 85.05 386.37 91.71"/><path class="cls-15" d="M386.51,98.85q-4.18,2.54-8.37,5.09l-2.48-3.39v-.27l5.83-8.39,4.88-.18Z"/><polygon class="cls-14" points="381.49 91.89 375.66 100.28 375.44 92.11 381.49 91.89"/><path class="cls-17" d="M397.54,107.21l-10.81.29.29,8.62-8.88-12.18q4.19-2.56,8.37-5.09l.07,3.59c2.78-.06,7.82.07,12.32,0Z"/><path class="cls-14" d="M387.19,121.14l-.8.47-10.31-5.87-.28-10.38,2.34-1.42L387,116.12Z"/><path class="cls-17" d="M378.14,103.94l-2.34,1.42-.14-4.81Z"/><polygon class="cls-15" points="386.39 121.61 376.4 127.48 376.08 115.74 386.39 121.61"/><polygon class="cls-14" points="387.5 130.45 386.12 133.69 376.5 130.95 376.4 127.48 386.39 121.61 387.21 122.09 387.5 130.45"/><polygon class="cls-17" points="387.21 122.09 386.39 121.61 387.19 121.14 387.21 122.09"/><polygon class="cls-15" points="386.12 133.69 381.46 144.6 374.85 140.14 375.33 139.83 376.33 137.45 376.62 135.47 376.5 130.95 386.12 133.69"/><polygon class="cls-17" points="390.15 139.58 388.67 145.22 382.63 145.41 381.46 144.6 386.12 133.69 387.62 134.11 387.63 134.47 387.93 136.36 388.52 137.84 389.61 139.24 390.15 139.58"/><polygon class="cls-14" points="381.46 144.6 381.09 145.44 372.16 145.7 370.61 141.85 372.55 141.62 374.85 140.14 381.46 144.6"/><polygon class="cls-17" points="372.16 145.7 366 145.89 365.9 142.43 370.61 141.85 372.16 145.7"/><polygon class="cls-15" points="387.62 134.11 386.12 133.69 387.5 130.45 387.62 134.11"/><polygon class="cls-14" points="400.3 144.89 388.67 145.22 390.15 139.58 391.3 140.32 392.8 140.81 396.95 141.42 400.2 141.44 400.3 144.89"/><path class="cls-14" d="M405.08,107l-7.54.21,1.36-4.82c1.48,0,2.9-.09,4.17-.19Z"/><path class="cls-15" d="M409.54,100.26v8.06l-2.17-1.12-2.29-.2-2-4.8a24.73,24.73,0,0,0,3.3-.46A7.37,7.37,0,0,0,409.54,100.26Z"/><path class="cls-16" d="M417.23,111.75l-5,.26-.27-1-1.68-2.28-.7-.37v-8.06a7.33,7.33,0,0,0,2.09-3c.07-.21.13-.39.18-.56l5.16,5.9Z"/><path class="cls-14" d="M417,102.62l-5.16-5.9c.22-.78.21-1.44.67-3.39.18-.76.36-1.38.47-1.77l3.7-.11Z"/><polygon class="cls-14" points="417.39 117.23 413.56 117.34 412.19 112.01 417.23 111.75 417.39 117.23"/><path class="cls-15" d="M422,82.77l-3.82.6a24.66,24.66,0,0,0-1.22-3.88l4.69-.34Z"/><path class="cls-17" d="M421.61,79.15l-4.69.34h0A22.92,22.92,0,0,0,414,74.35a11.81,11.81,0,0,0-4.29-4c-.91-.45-1.67-.64-4-.72l2.48-5.14,13,10.39Z"/><polygon class="cls-14" points="421.2 74.83 408.22 64.44 408.34 64.21 420.17 63.81 421.2 74.83"/><path class="cls-24" d="M736.66,494.87v60.26a12.52,12.52,0,0,1-1.93,4,12.91,12.91,0,0,1-5.73,4.32c-2.49,1.17-5,2.32-7.54,3.45q-6.57,3-13.31,5.75-7.35,3.08-14.86,6-2.34.92-4.7,1.78l-2.53,1c-171.58,63.44-406.27,61.78-589.58-1.66l-2.2-.76h0l-2.9-1Q74.22,571.83,57.75,565c-1.27-.51-2.54-1-3.8-1.57a14.56,14.56,0,0,1-4.1-3.8,14.75,14.75,0,0,1-2.19-4.52V494.87A7.77,7.77,0,0,1,54,491.45C124.8,519.6,245,555.81,397.87,556.08c120.06.22,238-21.1,331.13-64.63a6.28,6.28,0,0,1,7.66,3.42Z"/><path class="cls-16" d="M736.59,589.82l-40.38,12.52a22.15,22.15,0,0,0,1.06-7.94v0a21.72,21.72,0,0,0-2-12.63,20.45,20.45,0,0,0-1.94-3.13q7.51-2.88,14.86-6,9.35-3.52,18.47-7.31c1.27-.51,2.54-1,3.8-1.57a14.56,14.56,0,0,0,4.1-3.8,14.75,14.75,0,0,0,2.19-4.52v-.11l1.45,1.06a23.49,23.49,0,0,1,6.38,14.06C745.43,581.57,737.58,588.9,736.59,589.82Z"/><path class="cls-25" d="M693.29,578.6l-.29-.39"/><path class="cls-17" d="M697.27,594.36a17,17,0,0,0-2.12-7.4,17.49,17.49,0,0,0-6.56-6.58q2.35-.87,4.7-1.78a20.45,20.45,0,0,1,1.94,3.13A21.72,21.72,0,0,1,697.27,594.36Z"/><path class="cls-16" d="M47.63,589,88,601.48A22.15,22.15,0,0,1,87,593.54v0a21.72,21.72,0,0,1,2-12.63,20.45,20.45,0,0,1,1.94-3.13q-7.52-2.88-14.86-6-9.34-3.52-18.47-7.31c-1.27-.51-2.54-1-3.8-1.57a14.56,14.56,0,0,1-4.1-3.8,14.75,14.75,0,0,1-2.19-4.52v-.11l-1.45,1.06a23.49,23.49,0,0,0-6.38,14.06C38.79,580.71,46.64,588,47.63,589Z"/><path class="cls-17" d="M87,593.5a17,17,0,0,1,2.12-7.4,17.49,17.49,0,0,1,6.56-6.58q-2.35-.87-4.7-1.78A20.45,20.45,0,0,0,89,580.87,21.72,21.72,0,0,0,87,593.5Z"/><path class="cls-25" d="M693.29,578.6l-.29-.39"/><text class="cls-26" transform="translate(111.62 547.23) rotate(16.96)">N</text><text class="cls-26" transform="translate(130.17 552.87) rotate(16.02)">A</text><text class="cls-26" transform="translate(144.45 556.98) rotate(15.31)">T</text><text class="cls-26" transform="translate(157.52 560.57) rotate(14.46)">U</text><text class="cls-26" transform="translate(174.75 565.01) rotate(13.55)">R</text><text class="cls-26" transform="translate(189.8 568.64) rotate(12.65)">A</text><text class="cls-26" transform="matrix(0.98, 0.2, -0.2, 0.98, 206.12, 572.28)">L</text><text class="cls-26" transform="translate(218.05 574.77) rotate(11.27)"> </text><text class="cls-26" transform="translate(224.98 576.19) rotate(10.52)">H</text><text class="cls-26" transform="translate(243.07 579.53) rotate(9.59)">E</text><text class="cls-26" transform="translate(255.99 581.72) rotate(8.74)">R</text><text class="cls-26" transform="matrix(0.99, 0.14, -0.14, 0.99, 271.3, 584.05)">I</text><text class="cls-26" transform="matrix(0.99, 0.13, -0.13, 0.99, 278.1, 585.03)">T</text><text class="cls-26" transform="matrix(0.99, 0.12, -0.12, 0.99, 289.6, 586.55)">A</text><text class="cls-26" transform="matrix(1, 0.1, -0.1, 1, 305.86, 588.45)">G</text><text class="cls-26" transform="translate(323.53 590.15) rotate(4.58)">E</text><text class="cls-26" transform="translate(336.58 591.18) rotate(3.94)"> </text><text class="cls-26" transform="translate(343.64 591.68) rotate(3.38)">-</text><text class="cls-26" transform="translate(354.01 592.28) rotate(2.81)"> </text><text class="cls-26" transform="translate(361.05 592.64) rotate(2.15)">T</text><text class="cls-26" transform="translate(374.59 593.16) rotate(1.2)">R</text><text class="cls-26" transform="translate(390.08 593.49) rotate(0.13)">A</text><text class="cls-26" transform="matrix(1, -0.02, 0.02, 1, 406.75, 593.55)">N</text><text class="cls-26" transform="translate(426.12 593.16) rotate(-2.17)">S</text><text class="cls-26" transform="translate(439.87 592.64) rotate(-3.05)">F</text><text class="cls-26" transform="translate(452.45 592) rotate(-4.13)">O</text><text class="cls-26" transform="matrix(1, -0.09, 0.09, 1, 471.92, 590.57)">R</text><text class="cls-26" transform="matrix(0.99, -0.12, 0.12, 0.99, 487.31, 589.18)">M</text><text class="cls-26" transform="translate(510.42 586.43) rotate(-7.65)"> </text><text class="cls-26" transform="translate(517.43 585.51) rotate(-8.37)">Y</text><text class="cls-26" transform="matrix(0.99, -0.16, 0.16, 0.99, 530.99, 583.55)">O</text><text class="cls-26" transform="translate(550.23 580.33) rotate(-10.73)">U</text><text class="cls-26" transform="matrix(0.98, -0.21, 0.21, 0.98, 567.73, 577)">R</text><text class="cls-26" transform="translate(582.86 573.8) rotate(-12.59)"> </text><text class="cls-26" transform="translate(589.78 572.27) rotate(-13.25)">F</text><text class="cls-26" transform="translate(602.07 569.4) rotate(-14.26)">U</text><text class="cls-26" transform="translate(619.31 565) rotate(-15.29)">T</text><text class="cls-26" transform="translate(632.37 561.45) rotate(-16.31)">U</text><text class="cls-26" transform="translate(649.45 556.45) rotate(-17.38)">R</text><text class="cls-26" transform="translate(664.21 551.81) rotate(-18.29)">E</text></svg>