<svg id="Layer_1" data-name="Layer 1" xmlns="http://www.w3.org/2000/svg" xmlns:xlink="http://www.w3.org/1999/xlink" viewBox="0 0 525.45 567.93"><defs><style>.cls-1{fill:url(#linear-gradient);}.cls-2{fill:url(#linear-gradient-2);}.cls-3{fill:url(#linear-gradient-3);}.cls-4{fill:url(#linear-gradient-4);}.cls-5{fill:url(#linear-gradient-5);}.cls-6{fill:url(#linear-gradient-6);}.cls-7{fill:url(#linear-gradient-7);}.cls-8{fill:url(#linear-gradient-8);}.cls-9{fill:url(#linear-gradient-9);}.cls-10{fill:url(#linear-gradient-10);}.cls-11{fill:url(#linear-gradient-11);}.cls-12{fill:url(#linear-gradient-12);}.cls-13{fill:#51567a;}.cls-14{fill:#842315;}.cls-15{fill:#b35d27;}</style><linearGradient id="linear-gradient" x1="182.89" y1="152.63" x2="209.92" y2="152.63" gradientUnits="userSpaceOnUse"><stop offset="0" stop-color="#27aae1"/><stop offset="0.21" stop-color="#1e97cb"/><stop offset="0.38" stop-color="#007ab3"/><stop offset="0.62" stop-color="#265988"/><stop offset="0.85" stop-color="#333373"/><stop offset="0.88" stop-color="#33336e"/><stop offset="0.93" stop-color="#353561"/><stop offset="0.97" stop-color="#37364b"/><stop offset="1" stop-color="#393839"/></linearGradient><linearGradient id="linear-gradient-2" x1="181.93" y1="102.12" x2="208.96" y2="102.12" xlink:href="#linear-gradient"/><linearGradient id="linear-gradient-3" x1="310.24" y1="246.54" x2="337.25" y2="246.54" xlink:href="#linear-gradient"/><linearGradient id="linear-gradient-4" x1="122.93" y1="80.97" x2="149.96" y2="80.97" xlink:href="#linear-gradient"/><linearGradient id="linear-gradient-5" x1="228.81" y1="80.97" x2="255.84" y2="80.97" xlink:href="#linear-gradient"/><linearGradient id="linear-gradient-6" x1="331.45" y1="292.38" x2="358.46" y2="292.38" xlink:href="#linear-gradient"/><linearGradient id="linear-gradient-7" x1="435.42" y1="227.72" x2="462.43" y2="227.72" xlink:href="#linear-gradient"/><linearGradient id="linear-gradient-8" x1="142.59" y1="176.75" x2="162.13" y2="176.75" xlink:href="#linear-gradient"/><linearGradient id="linear-gradient-9" x1="109.72" y1="211.59" x2="125.37" y2="211.59" gradientTransform="translate(296.47 48.57) rotate(76.72)" xlink:href="#linear-gradient"/><linearGradient id="linear-gradient-10" x1="223.01" y1="226.8" x2="445.8" y2="226.8" gradientUnits="userSpaceOnUse"><stop offset="0" stop-color="#27aae1"/><stop offset="0.21" stop-color="#1e97cb"/><stop offset="0.38" stop-color="#007ab3"/><stop offset="0.62" stop-color="#265988"/><stop offset="0.85" stop-color="#1d1768"/><stop offset="0.89" stop-color="#1f1963"/><stop offset="0.93" stop-color="#242056"/><stop offset="0.98" stop-color="#2d2a40"/><stop offset="1" stop-color="#333132"/></linearGradient><linearGradient id="linear-gradient-11" x1="49.05" y1="370.82" x2="574.49" y2="370.82" xlink:href="#linear-gradient"/><linearGradient id="linear-gradient-12" x1="165.92" y1="455.35" x2="294.36" y2="455.35" gradientTransform="matrix(-0.98, -0.18, -0.18, 0.98, 494.05, -72.72)" xlink:href="#linear-gradient"/></defs><path class="cls-1" d="M209.92,152.62a13.52,13.52,0,1,1-13.52-13.5A13.52,13.52,0,0,1,209.92,152.62Z" transform="translate(-49.05 -124.93)"/><circle class="cls-2" cx="195.45" cy="102.12" r="13.51"/><path class="cls-3" d="M337.25,246.54A13.51,13.51,0,1,1,323.73,233,13.51,13.51,0,0,1,337.25,246.54Z" transform="translate(-49.05 -124.93)"/><circle class="cls-4" cx="136.44" cy="80.97" r="13.51"/><circle class="cls-5" cx="242.32" cy="80.97" r="13.51"/><path class="cls-6" d="M358.46,292.37a13.51,13.51,0,1,1-13.5-13.5A13.5,13.5,0,0,1,358.46,292.37Z" transform="translate(-49.05 -124.93)"/><path class="cls-7" d="M462.43,227.72a13.51,13.51,0,1,1-13.51-13.51A13.51,13.51,0,0,1,462.43,227.72Z" transform="translate(-49.05 -124.93)"/><path class="cls-8" d="M162.13,176.74a9.77,9.77,0,1,1-9.76-9.77A9.76,9.76,0,0,1,162.13,176.74Z" transform="translate(-49.05 -124.93)"/><circle class="cls-9" cx="117.55" cy="211.59" r="7.82" transform="translate(-164.44 152.45) rotate(-76.72)"/><path class="cls-10" d="M445.8,280.52v23.71a24.51,24.51,0,0,1-24.44,24.45H397.64a24.51,24.51,0,0,1-24.44-24.45V280.52a24.29,24.29,0,0,1,5.27-15.13l-16.68-11.06a14.06,14.06,0,0,1-3.33.41,13.52,13.52,0,0,1-5.58-25.82l5.35-18.12A24.44,24.44,0,0,1,345,189.11V170.19a24.3,24.3,0,0,1,4.17-13.63l-16.57-12.14a13.51,13.51,0,0,1-25.62-6,13.21,13.21,0,0,1,1.36-5.89L287.46,140a24.06,24.06,0,0,1,2.3,10.26v17.88a24.51,24.51,0,0,1-24.43,24.44H247.45A24.5,24.5,0,0,1,223,168.14V150.26a24.51,24.51,0,0,1,24.44-24.43h17.88a24.47,24.47,0,0,1,20.43,11.09l27.14-9.68,0,0a13.37,13.37,0,0,1,7.51-2.29A13.52,13.52,0,0,1,334,138.43a13,13,0,0,1-.25,2.57l17.56,12.85a24.34,24.34,0,0,1,18.11-8.1H388.3a24.51,24.51,0,0,1,24.44,24.44v18.92a24.51,24.51,0,0,1-24.44,24.42H369.39a24.09,24.09,0,0,1-8-1.34l-4.62,15.63a14.63,14.63,0,0,1,1.65-.1,13.51,13.51,0,0,1,7.14,25l15.25,10.12a24.19,24.19,0,0,1,16.79-6.74h23.72A24.5,24.5,0,0,1,445.8,280.52Z" transform="translate(-49.05 -124.93)"/><path class="cls-11" d="M393.33,125.84c.12-.25,2,.46,6.1,2,6.69,2.55,10.25,3.78,11.05,4.1,61.49,24.46,102.61,73.37,102.61,73.37,33.62,40,44.84,79.95,50.66,97.43,0,0,13,45.06,10.39,94.13A220.12,220.12,0,0,1,570,429.11c-3.38,17.21-5.45,27.26-12.73,38.36a69.49,69.49,0,0,1-19.49,19.75c-11.69,7.64-22.68,9.44-30.65,10.65-20.75,3.14-37.24-1-53.26-5.2A206.91,206.91,0,0,1,416.76,479c-16.59-8-31.07-17.72-45.29-25.13-1.35-.7-6.25-3.27-12.81-7-1.83-1-3.81-2.22-6.38-3.79-12.23-7.46-24.34-16.33-24.34-16.33-12.15-8.92-20.07-13-43.73-28.62,0,0-49.78-32.9-90.75-53.86-3.17-1.62-10-5-17.67-3.46a31.27,31.27,0,0,0-9.6,4A45.55,45.55,0,0,0,156,352.9c-24.68,26.37-33.6,48.5-33.6,48.5-16.1,40-5,81.59-.34,95.6,0,0,16.65,59,68.24,98,4.57,3.46,21.26,14.25,25.07,16.42l1.6.9c4.88,2.7,6.64,3.29,6.58,3.46-.14.45-16.63-2.46-33.6-11.43-4.55-2.4-8-4.64-14.24-8.7,0,0-8.91-5.79-17.28-12.08a322.59,322.59,0,0,1-41.91-38.1C92,517.42,78,488.25,71.52,472.75c-8.36-19.89-29-70.7-20.43-134.75,2.52-18.89,9.51-71.22,39.83-84.52a76.12,76.12,0,0,1,28.41-6.58,140,140,0,0,1,34.29,3.47c31,6.9,52.31,16.28,52.31,16.28,34.11,15,60.88,33.77,104.26,64.43,0,0,40.56,28.66,73.78,48.49a308.42,308.42,0,0,0,31.18,15.59c2.33,1,5.41,2.3,9.08,3.64,5.12,1.87,8.93,3.27,12.74,4a38.37,38.37,0,0,0,18.43-1.28c10.1-6.08,33.65-22,44.44-48.86,5.83-14.5,7.77-31.76,8.06-34.42a155.67,155.67,0,0,0,.65-23.51,203.25,203.25,0,0,0-3.64-29.1c-9.38-45-48.43-95.53-67.25-111.54-6.06-5.16-18.66-14-24.24-17-3.16-1.7-5.61-2.94-5.61-2.94-4.05-2.07-4.93-2.38-7.47-3.77C397.52,128.84,393.13,126.23,393.33,125.84Z" transform="translate(-49.05 -124.93)"/><circle class="cls-12" cx="184.27" cy="332.68" r="64.22"/><path class="cls-13" d="M250,558.93c-46.28,16.79-98.57-10.36-116.8-60.63S137.72,393.68,184,376.89c23.91-8.67,49.41-5.62,71,6.27-17.82-7.86-38-9.24-57-2.34a73.75,73.75,0,0,0-18.72,10c-39.91,16-59.22,63.7-43.19,107.9,16.33,45,63.19,69.36,104.66,54.31a73.92,73.92,0,0,0,18.72-10c24.48-9.81,41.22-31.56,46.79-57.11C302,518.87,281.42,547.55,250,558.93Z" transform="translate(-49.05 -124.93)"/><path class="cls-13" d="M240.76,553.05c-41.47,15.05-88.33-9.27-104.66-54.31-16-44.2,3.28-91.92,43.19-107.9-28.46,21-40.43,61.14-26.78,98.76,16.33,45,63.2,69.35,104.66,54.32.78-.29,1.54-.58,2.31-.89A73.92,73.92,0,0,1,240.76,553.05Z" transform="translate(-49.05 -124.93)"/><path class="cls-14" d="M402.41,680.36c.07,3.82-2.7,7.17-8.53,7.27a12.63,12.63,0,0,1-6.33-1.46l.75-2.69a11.37,11.37,0,0,0,5.76,1.51c3.26-.06,5.14-1.82,5.09-4.31,0-2.31-1.39-3.61-4.75-4.84-4.06-1.35-6.59-3.4-6.65-6.88-.07-3.85,3.07-6.77,7.87-6.86a11.24,11.24,0,0,1,5.49,1.11l-.83,2.62a9.94,9.94,0,0,0-4.72-1.09c-3.37.06-4.62,2.1-4.59,3.79,0,2.31,1.57,3.42,5,4.68C400.18,674.75,402.34,676.73,402.41,680.36Z" transform="translate(-49.05 -124.93)"/><path class="cls-14" d="M414.21,668.74c-4.91.09-8.74,3.65-8.63,9.59.1,5.61,3.87,9.06,8.68,9,4.29-.08,8.78-3,8.67-9.59C422.83,672.29,419.31,668.65,414.21,668.74Zm.15,16.14c-3.16.06-5.45-2.83-5.52-6.72-.06-3.38,1.53-6.93,5.35-7s5.38,3.72,5.44,6.73C419.7,681.89,417.44,684.83,414.36,684.88Z" transform="translate(-49.05 -124.93)"/><path class="cls-14" d="M430.34,667.91l0,1,4.29-.08,0,2.46-4.29.08.28,15.29-3.19.06-.28-15.3-2.5,0,0-2.46,2.5,0,0-.85c0-2.49.47-4.78,1.94-6.23a6.18,6.18,0,0,1,4.3-1.73,7.62,7.62,0,0,1,2.76.46l-.39,2.5a4.84,4.84,0,0,0-2.07-.36C430.94,662.76,430.29,665.19,430.34,667.91Z" transform="translate(-49.05 -124.93)"/><path class="cls-14" d="M446.59,686.25a7.83,7.83,0,0,1-2.85.49,4.43,4.43,0,0,1-3.51-1.29c-.94-.94-1.29-2.51-1.33-4.6l-.18-9.68-2.75.05,0-2.46,2.75,0-.08-4.25,3.14-.9.09,5.09,4.62-.08.05,2.46-4.62.08.17,9.57c0,2.21.69,3.44,2.48,3.41a7.76,7.76,0,0,0,1.87-.25Z" transform="translate(-49.05 -124.93)"/><path class="cls-15" d="M177.88,679.63,178,685c-8.35,4.6-16.6,7.61-26.76,7.84-24.48.56-41.54-17.29-42.11-41.89s15.78-43.22,40.63-43.79c10.16-.23,17.79,1.43,24.73,5.31l.9,17.73-7.47.18-2.64-13.73a28.09,28.09,0,0,0-14.4-3.39c-17.14.39-29.44,14-28.9,37.4s12.35,36.32,31.44,35.89A35.34,35.34,0,0,0,167,683.67l-.09-3.79c-.17-7.35-.42-14.84-.75-22.25l-12.88-.7-.11-4.9,12.72-.29,11.75-.27,7.35-.17.11,4.9-7.46.85C177.61,664.46,177.71,672,177.88,679.63Z" transform="translate(-49.05 -124.93)"/><path class="cls-15" d="M224.71,639.24A17,17,0,0,0,221,639c-7.59.18-12.84,6-14.12,14.16a30.75,30.75,0,0,0-.38,5l.73,31.58-10.65.24-.94-40.75c-.16-7-.42-13-.91-18.47l9.42-.22.64,11.62h.49c2.51-8,8.88-13.18,16.1-13.35a11.72,11.72,0,0,1,3.07.3Z" transform="translate(-49.05 -124.93)"/><path class="cls-15" d="M288.32,657.74c-.42-18.11-12.21-30.21-29.22-29.82-16.4.38-29.1,12.3-28.65,32.13.43,18.73,13.06,30.19,29.09,29.82C273.86,689.54,288.82,679.65,288.32,657.74Zm-28.47,24c-10.53.25-18.22-9.37-18.52-22.35-.25-11.26,5-23.13,17.71-23.42s18,12.32,18.27,22.35C277.62,671.7,270.13,681.55,259.85,681.78Z" transform="translate(-49.05 -124.93)"/><path class="cls-15" d="M379.69,626.5,362,686.17l-9.79.23-9.71-28.07A198.37,198.37,0,0,1,336.75,639h-.24a175.16,175.16,0,0,1-4.93,19.71l-8.9,28.37-9.79.22-19.23-58.82,11-.26,8.53,29.93c1.86,6.57,3.59,12.65,4.83,18.75h.37c1.21-6,3-12.44,4.83-18.85l9-30.45,9.05-.21,9.86,29.41c2.37,7.05,4.23,13.25,5.71,19.21h.37a179.57,179.57,0,0,1,4.08-19.32l7.77-29.94Z" transform="translate(-49.05 -124.93)"/></svg>