<svg id="Layer_1" data-name="Layer 1" xmlns="http://www.w3.org/2000/svg" xmlns:xlink="http://www.w3.org/1999/xlink" viewBox="0 0 32 32"><defs><style>.cls-1{font-size:1.22px;fill:#2e3192;font-family:MyriadPro-Regular, Myriad Pro;}.cls-2{fill:#b35d27;}.cls-3{fill:none;stroke-width:4px;stroke:url(#Fading_Sky);}.cls-3,.cls-4,.cls-5,.cls-6,.cls-7,.cls-8{stroke-miterlimit:10;}.cls-4{fill:#c3832b;stroke:#565454;}.cls-4,.cls-5,.cls-6,.cls-7,.cls-8{stroke-width:0.25px;}.cls-5{fill:#006b89;}.cls-5,.cls-6,.cls-7,.cls-8{stroke:#231f20;}.cls-6{fill:#003d58;}.cls-7{fill:#002a41;}.cls-8{fill:#009ecb;}</style><linearGradient id="Fading_Sky" x1="0.77" y1="14.54" x2="30.62" y2="14.54" gradientUnits="userSpaceOnUse"><stop offset="0" stop-color="#2484c6"/><stop offset="1" stop-color="#2484c6" stop-opacity="0"/></linearGradient></defs><text id="Soft" class="cls-1" transform="matrix(1, -0.01, 0.01, 1, 19.18, 12.35)">S</text><text class="cls-1" transform="translate(19.8 12.35) rotate(-0.55)">o</text><text class="cls-1" transform="matrix(1, -0.01, 0.01, 1, 20.47, 12.34)">f</text><text class="cls-1" transform="translate(20.86 12.34) rotate(-0.53)">t</text><path class="cls-2" d="M12.57,12.28a1.8,1.8,0,0,1-.89.25,1.35,1.35,0,0,1-1.39-1.4,1.36,1.36,0,0,1,1.37-1.45,1.58,1.58,0,0,1,.82.19l0,.59h-.25l-.1-.6.25.08v.23a1,1,0,0,0-.71-.28c-.57,0-1,.45-1,1.23s.4,1.21,1,1.2a1.35,1.35,0,0,0,.63-.17l-.18.19v-.23c0-.31,0-.63,0-.94h.39v1.12Zm-.81-.94v-.17h1.05v.16l-.45,0h-.08Z"/><path class="cls-2" d="M13.17,11.09c0-.23,0-.43,0-.61h.31l0,.38h0a.6.6,0,0,1,.54-.44h.1v.34H14a.5.5,0,0,0-.47.47.78.78,0,0,0,0,.16l0,1h-.36Z"/><path class="cls-2" d="M16.24,11.41a1,1,0,0,1-1,1.05.92.92,0,0,1-.95-1,1,1,0,0,1,1-1.05A.93.93,0,0,1,16.24,11.41Zm-1.56,0a.67.67,0,0,0,.61.75c.34,0,.59-.33.58-.78s-.17-.75-.6-.75S14.67,11.07,14.68,11.45Z"/><path class="cls-2" d="M16.81,10.43l.27,1c.06.21.12.42.16.62h0c0-.2.11-.41.17-.63l.3-1H18l.32,1c.07.24.13.44.18.64h0a6.24,6.24,0,0,1,.14-.64l.27-1h.35l-.6,2h-.33l-.31-.94a4.71,4.71,0,0,1-.19-.64h0a4.42,4.42,0,0,1-.17.65l-.3.94h-.33l-.62-2Z"/><path class="cls-3" d="M25.11,12l1.51,1.44-2.31,2.31V12.62a1.23,1.23,0,0,0-2.08-.79l-2.12,1.94a1.08,1.08,0,0,0-.36.79v2.8a1.24,1.24,0,0,0-2.09-.79l-2.12,1.95a1.06,1.06,0,0,0-.36.79v-.76a1.24,1.24,0,0,0-2.08-.79L11,19.71l-.09.09-.27-.27h0v-.84a1.23,1.23,0,0,0-2.08-.79l-.38.35a1.29,1.29,0,0,0-.5.32L3.5,22.71A26.79,26.79,0,0,1,8.26,10.85C13.78,3.09,21.68.49,25.92,5.06a10.41,10.41,0,0,1,2.49,6l-3.1.38A.35.35,0,0,0,25.11,12Z"/><path class="cls-4" d="M31.5,11.07l-.27,6a.35.35,0,0,1-.59.24l-2-1.89-4.36,4.35v-4l2.31-2.31L25.11,12a.35.35,0,0,1,.2-.6l3.1-.38,2.69-.32A.35.35,0,0,1,31.5,11.07Z"/><path class="cls-5" d="M19.74,17.36V25.3a1.18,1.18,0,0,1-1.23,1.12H16.39a1.17,1.17,0,0,1-1.22-1.12v-6a1,1,0,0,1,.36-.79l2.12-1.95A1.24,1.24,0,0,1,19.74,17.36Z"/><path class="cls-6" d="M15.17,18.55v6.84a1.15,1.15,0,0,1-1.05,1.11H11.83a1.18,1.18,0,0,1-1.23-1.12V20.5a1.07,1.07,0,0,1,.27-.7l.09-.09,2.13-1.95A1.24,1.24,0,0,1,15.17,18.55Z"/><path class="cls-7" d="M10.6,18.69v6.74a1.17,1.17,0,0,1-1.22,1.12H7.26A1.17,1.17,0,0,1,6,25.43V20.64a1.09,1.09,0,0,1,.36-.8l1.74-1.59.38-.35A1.23,1.23,0,0,1,10.6,18.69Z"/><path class="cls-8" d="M24.31,12.62V25.39a1.17,1.17,0,0,1-1.22,1.12H21a1.17,1.17,0,0,1-1.22-1.12V14.56a1.08,1.08,0,0,1,.36-.79l2.12-1.94A1.23,1.23,0,0,1,24.31,12.62Z"/></svg>