<?xml version="1.0" encoding="UTF-8" standalone="no"?>
<svg
   xmlns:dc="http://purl.org/dc/elements/1.1/"
   xmlns:cc="http://creativecommons.org/ns#"
   xmlns:rdf="http://www.w3.org/1999/02/22-rdf-syntax-ns#"
   xmlns:svg="http://www.w3.org/2000/svg"
   xmlns="http://www.w3.org/2000/svg"
   xmlns:sodipodi="http://sodipodi.sourceforge.net/DTD/sodipodi-0.dtd"
   xmlns:inkscape="http://www.inkscape.org/namespaces/inkscape"
   id="Layer_1"
   data-name="Layer 1"
   viewBox="0 0 32 32"
   version="1.1"
   sodipodi:docname="logo.svg"
   inkscape:export-filename="/home/collin/Desktop/Collins/WorkSpaces/Web_workspace/grow-soft-services.github.io/assets/img/logo.svg.png"
   inkscape:export-xdpi="1693.6382"
   inkscape:export-ydpi="1693.6382"
   inkscape:version="0.92.5 (2060ec1f9f, 2020-04-08)">
  <metadata
     id="metadata41">
    <rdf:RDF>
      <cc:Work
         rdf:about="">
        <dc:format>image/svg+xml</dc:format>
        <dc:type
           rdf:resource="http://purl.org/dc/dcmitype/StillImage" />
      </cc:Work>
    </rdf:RDF>
  </metadata>
  <sodipodi:namedview
     pagecolor="#ffffff"
     bordercolor="#666666"
     borderopacity="1"
     objecttolerance="10"
     gridtolerance="10"
     guidetolerance="10"
     inkscape:pageopacity="0"
     inkscape:pageshadow="2"
     inkscape:window-width="1366"
     inkscape:window-height="704"
     id="namedview39"
     showgrid="false"
     inkscape:zoom="14.75"
     inkscape:cx="13.498209"
     inkscape:cy="15.890187"
     inkscape:window-x="0"
     inkscape:window-y="27"
     inkscape:window-maximized="1"
     inkscape:current-layer="Layer_1" />
  <defs
     id="defs9">
    <style
       id="style2">.cls-1{font-size:1.22px;fill:#2e3192;font-family:MyriadPro-Regular, Myriad Pro;}.cls-2{fill:#b35d27;}.cls-3{fill:none;stroke-width:4px;stroke:url(#Fading_Sky);}.cls-3,.cls-4,.cls-5,.cls-6,.cls-7,.cls-8{stroke-miterlimit:10;}.cls-4{fill:#c3832b;stroke:#565454;}.cls-4,.cls-5,.cls-6,.cls-7,.cls-8{stroke-width:0.25px;}.cls-5{fill:#006b89;}.cls-5,.cls-6,.cls-7,.cls-8{stroke:#231f20;}.cls-6{fill:#003d58;}.cls-7{fill:#002a41;}.cls-8{fill:#009ecb;}</style>
    <linearGradient
       id="Fading_Sky"
       x1="0.77"
       y1="14.54"
       x2="30.62"
       y2="14.54"
       gradientUnits="userSpaceOnUse"
       gradientTransform="matrix(1.0864921,0,0,1.056139,-1.3229496,-1.0413781)">
      <stop
         offset="0"
         stop-color="#2484c6"
         id="stop4" />
      <stop
         offset="1"
         stop-color="#2484c6"
         stop-opacity="0"
         id="stop6" />
    </linearGradient>
  </defs>
  <text
     id="Soft"
     class="cls-1"
     transform="rotate(-0.5729387)"
     x="17.035648"
     y="14.521074"
     style="font-size:1.22006106px;font-family:MyriadPro-Regular, 'Myriad Pro';fill:#2e3192;stroke-width:1.00004995">S</text>
  <text
     class="cls-1"
     transform="rotate(-0.55)"
     id="text12"
     x="17.661432"
     y="14.520205"
     style="font-size:1.22000003px;font-family:MyriadPro-Regular, 'Myriad Pro';fill:#2e3192">o</text>
  <text
     class="cls-1"
     transform="rotate(-0.5729387)"
     id="text14"
     x="18.325684"
     y="14.523973"
     style="font-size:1.22006106px;font-family:MyriadPro-Regular, 'Myriad Pro';fill:#2e3192;stroke-width:1.00004995">f</text>
  <text
     class="cls-1"
     transform="rotate(-0.53)"
     id="text16"
     x="18.726547"
     y="14.513844"
     style="font-size:1.22000003px;font-family:MyriadPro-Regular, 'Myriad Pro';fill:#2e3192">t</text>
  <path
     class="cls-2"
     d="m 10.57,14.28 a 1.8,1.8 0 0 1 -0.89,0.25 1.35,1.35 0 0 1 -1.39,-1.4 1.36,1.36 0 0 1 1.37,-1.45 1.58,1.58 0 0 1 0.82,0.19 v 0.59 h -0.25 l -0.1,-0.6 0.25,0.08 v 0.23 A 1,1 0 0 0 9.67,11.89 c -0.57,0 -1,0.45 -1,1.23 0,0.78 0.4,1.21 1,1.2 a 1.35,1.35 0 0 0 0.63,-0.17 l -0.18,0.19 v -0.23 c 0,-0.31 0,-0.63 0,-0.94 h 0.39 v 1.12 z M 9.76,13.34 v -0.17 h 1.05 v 0.16 h -0.45 -0.08 z"
     id="path18"
     inkscape:connector-curvature="0"
     style="fill:#b35d27" />
  <path
     class="cls-2"
     d="m 11.17,13.09 c 0,-0.23 0,-0.43 0,-0.61 h 0.31 v 0.38 0 a 0.6,0.6 0 0 1 0.54,-0.44 h 0.1 v 0.34 H 12 a 0.5,0.5 0 0 0 -0.47,0.47 0.78,0.78 0 0 0 0,0.16 v 1 h -0.36 z"
     id="path20"
     inkscape:connector-curvature="0"
     style="fill:#b35d27" />
  <path
     class="cls-2"
     d="m 14.24,13.41 a 1,1 0 0 1 -1,1.05 0.92,0.92 0 0 1 -0.95,-1 1,1 0 0 1 1,-1.05 0.93,0.93 0 0 1 0.95,1 z m -1.56,0 a 0.67,0.67 0 0 0 0.61,0.75 c 0.34,0 0.59,-0.33 0.58,-0.78 -0.01,-0.45 -0.17,-0.75 -0.6,-0.75 -0.43,0 -0.6,0.44 -0.59,0.82 z"
     id="path22"
     inkscape:connector-curvature="0"
     style="fill:#b35d27" />
  <path
     class="cls-2"
     d="m 14.81,12.43 0.27,1 c 0.06,0.21 0.12,0.42 0.16,0.62 v 0 c 0,-0.2 0.11,-0.41 0.17,-0.63 l 0.3,-1 H 16 l 0.32,1 c 0.07,0.24 0.13,0.44 0.18,0.64 v 0 a 6.24,6.24 0 0 1 0.14,-0.64 l 0.27,-1 h 0.35 l -0.6,2 h -0.33 l -0.31,-0.94 a 4.71,4.71 0 0 1 -0.19,-0.64 v 0 a 4.42,4.42 0 0 1 -0.17,0.65 l -0.3,0.94 h -0.33 l -0.62,-2 z"
     id="path24"
     inkscape:connector-curvature="0"
     style="fill:#b35d27" />
  <path
     class="cls-4"
     d="M31.5,11.07l-.27,6a.35.35,0,0,1-.59.24l-2-1.89-4.36,4.35v-4l2.31-2.31L25.11,12a.35.35,0,0,1,.2-.6l3.1-.38,2.69-.32A.35.35,0,0,1,31.5,11.07Z"
     id="path28" />
  <path
     class="cls-5"
     d="M19.74,17.36V25.3a1.18,1.18,0,0,1-1.23,1.12H16.39a1.17,1.17,0,0,1-1.22-1.12v-6a1,1,0,0,1,.36-.79l2.12-1.95A1.24,1.24,0,0,1,19.74,17.36Z"
     id="path30" />
  <path
     class="cls-6"
     d="M15.17,18.55v6.84a1.15,1.15,0,0,1-1.05,1.11H11.83a1.18,1.18,0,0,1-1.23-1.12V20.5a1.07,1.07,0,0,1,.27-.7l.09-.09,2.13-1.95A1.24,1.24,0,0,1,15.17,18.55Z"
     id="path32" />
  <path
     class="cls-7"
     d="M10.6,18.69v6.74a1.17,1.17,0,0,1-1.22,1.12H7.26A1.17,1.17,0,0,1,6,25.43V20.64a1.09,1.09,0,0,1,.36-.8l1.74-1.59.38-.35A1.23,1.23,0,0,1,10.6,18.69Z"
     id="path34" />
  <path
     class="cls-8"
     d="M24.31,12.62V25.39a1.17,1.17,0,0,1-1.22,1.12H21a1.17,1.17,0,0,1-1.22-1.12V14.56a1.08,1.08,0,0,1,.36-.79l2.12-1.94A1.23,1.23,0,0,1,24.31,12.62Z"
     id="path36" />
</svg>
